<svg xmlns="http://www.w3.org/2000/svg" width="300" height="330" viewBox="0 0 300 330" role="img" aria-label="Lara's Kitchen">
<title>Lara's Kitchen</title>
<g fill="none" stroke="#7D9B76" stroke-width="1.4" stroke-linecap="round">
<path d="M180.5 36 A 118 118 0 0 1 180.5 264"/>
<path d="M119.5 36 A 118 118 0 0 0 119.5 264"/>
</g>
<g fill="none" stroke="#7D9B76" stroke-width="1.2" stroke-linejoin="round"><g transform="rotate(20 150 150) translate(150 32) rotate(-32)"><path d="M0 0 C5 -6 15 -4 18 0 C15 4 5 6 0 0 Z"/></g><g transform="rotate(-20 150 150) translate(150 32) scale(-1 1) rotate(-32)"><path d="M0 0 C5 -6 15 -4 18 0 C15 4 5 6 0 0 Z"/></g><g transform="rotate(20 150 150) translate(150 32) rotate(140)"><path d="M0 0 C5 -6 15 -4 18 0 C15 4 5 6 0 0 Z"/></g><g transform="rotate(-20 150 150) translate(150 32) scale(-1 1) rotate(140)"><path d="M0 0 C5 -6 15 -4 18 0 C15 4 5 6 0 0 Z"/></g><g transform="rotate(34 150 150) translate(150 32) rotate(-28)"><path d="M0 0 C5 -6 15 -4 18 0 C15 4 5 6 0 0 Z"/></g><g transform="rotate(-34 150 150) translate(150 32) scale(-1 1) rotate(-28)"><path d="M0 0 C5 -6 15 -4 18 0 C15 4 5 6 0 0 Z"/></g><g transform="rotate(48 150 150) translate(150 32) rotate(-34)"><path d="M0 0 C5 -6 15 -4 18 0 C15 4 5 6 0 0 Z"/></g><g transform="rotate(-48 150 150) translate(150 32) scale(-1 1) rotate(-34)"><path d="M0 0 C5 -6 15 -4 18 0 C15 4 5 6 0 0 Z"/></g><g transform="rotate(48 150 150) translate(150 32) rotate(146)"><path d="M0 0 C5 -6 15 -4 18 0 C15 4 5 6 0 0 Z"/></g><g transform="rotate(-48 150 150) translate(150 32) scale(-1 1) rotate(146)"><path d="M0 0 C5 -6 15 -4 18 0 C15 4 5 6 0 0 Z"/></g><g transform="rotate(62 150 150) translate(150 32) rotate(-26)"><path d="M0 0 C5 -6 15 -4 18 0 C15 4 5 6 0 0 Z"/></g><g transform="rotate(-62 150 150) translate(150 32) scale(-1 1) rotate(-26)"><path d="M0 0 C5 -6 15 -4 18 0 C15 4 5 6 0 0 Z"/></g><g transform="rotate(76 150 150) translate(150 32) rotate(-33)"><path d="M0 0 C5 -6 15 -4 18 0 C15 4 5 6 0 0 Z"/></g><g transform="rotate(-76 150 150) translate(150 32) scale(-1 1) rotate(-33)"><path d="M0 0 C5 -6 15 -4 18 0 C15 4 5 6 0 0 Z"/></g><g transform="rotate(76 150 150) translate(150 32) rotate(142)"><path d="M0 0 C5 -6 15 -4 18 0 C15 4 5 6 0 0 Z"/></g><g transform="rotate(-76 150 150) translate(150 32) scale(-1 1) rotate(142)"><path d="M0 0 C5 -6 15 -4 18 0 C15 4 5 6 0 0 Z"/></g><g transform="rotate(90 150 150) translate(150 32) rotate(-29)"><path d="M0 0 C5 -6 15 -4 18 0 C15 4 5 6 0 0 Z"/></g><g transform="rotate(-90 150 150) translate(150 32) scale(-1 1) rotate(-29)"><path d="M0 0 C5 -6 15 -4 18 0 C15 4 5 6 0 0 Z"/></g><g transform="rotate(104 150 150) translate(150 32) rotate(-35)"><path d="M0 0 C5 -6 15 -4 18 0 C15 4 5 6 0 0 Z"/></g><g transform="rotate(-104 150 150) translate(150 32) scale(-1 1) rotate(-35)"><path d="M0 0 C5 -6 15 -4 18 0 C15 4 5 6 0 0 Z"/></g><g transform="rotate(104 150 150) translate(150 32) rotate(144)"><path d="M0 0 C5 -6 15 -4 18 0 C15 4 5 6 0 0 Z"/></g><g transform="rotate(-104 150 150) translate(150 32) scale(-1 1) rotate(144)"><path d="M0 0 C5 -6 15 -4 18 0 C15 4 5 6 0 0 Z"/></g><g transform="rotate(118 150 150) translate(150 32) rotate(-27)"><path d="M0 0 C5 -6 15 -4 18 0 C15 4 5 6 0 0 Z"/></g><g transform="rotate(-118 150 150) translate(150 32) scale(-1 1) rotate(-27)"><path d="M0 0 C5 -6 15 -4 18 0 C15 4 5 6 0 0 Z"/></g><g transform="rotate(132 150 150) translate(150 32) rotate(-33)"><path d="M0 0 C5 -6 15 -4 18 0 C15 4 5 6 0 0 Z"/></g><g transform="rotate(-132 150 150) translate(150 32) scale(-1 1) rotate(-33)"><path d="M0 0 C5 -6 15 -4 18 0 C15 4 5 6 0 0 Z"/></g><g transform="rotate(132 150 150) translate(150 32) rotate(141)"><path d="M0 0 C5 -6 15 -4 18 0 C15 4 5 6 0 0 Z"/></g><g transform="rotate(-132 150 150) translate(150 32) scale(-1 1) rotate(141)"><path d="M0 0 C5 -6 15 -4 18 0 C15 4 5 6 0 0 Z"/></g><g transform="rotate(146 150 150) translate(150 32) rotate(-30)"><path d="M0 0 C5 -6 15 -4 18 0 C15 4 5 6 0 0 Z"/></g><g transform="rotate(-146 150 150) translate(150 32) scale(-1 1) rotate(-30)"><path d="M0 0 C5 -6 15 -4 18 0 C15 4 5 6 0 0 Z"/></g><g transform="rotate(160 150 150) translate(150 32) rotate(-34)"><path d="M0 0 C5 -6 15 -4 18 0 C15 4 5 6 0 0 Z"/></g><g transform="rotate(-160 150 150) translate(150 32) scale(-1 1) rotate(-34)"><path d="M0 0 C5 -6 15 -4 18 0 C15 4 5 6 0 0 Z"/></g></g>
<g fill="none" stroke="#C4956A" stroke-width="1.3"><g transform="rotate(41 150 150) translate(150 32) rotate(-30)"><ellipse cx="9" cy="0" rx="4.5" ry="3.4"/></g><g transform="rotate(-41 150 150) translate(150 32) scale(-1 1) rotate(-30)"><ellipse cx="9" cy="0" rx="4.5" ry="3.4"/></g><g transform="rotate(97 150 150) translate(150 32) rotate(-30)"><ellipse cx="9" cy="0" rx="4.5" ry="3.4"/></g><g transform="rotate(-97 150 150) translate(150 32) scale(-1 1) rotate(-30)"><ellipse cx="9" cy="0" rx="4.5" ry="3.4"/></g><g transform="rotate(139 150 150) translate(150 32) rotate(-30)"><ellipse cx="9" cy="0" rx="4.5" ry="3.4"/></g><g transform="rotate(-139 150 150) translate(150 32) scale(-1 1) rotate(-30)"><ellipse cx="9" cy="0" rx="4.5" ry="3.4"/></g></g>
<path d="M150 17 L151.34 22.77 L156.36 19.64 L153.23 24.66 L159 26 L153.23 27.34 L156.36 32.36 L151.34 29.23 L150 35 L148.66 29.23 L143.64 32.36 L146.77 27.34 L141 26 L146.77 24.66 L143.64 19.64 L148.66 22.77 Z" fill="none" stroke="#C4956A" stroke-width="1.2" stroke-linejoin="round"/>
<g fill="#C4956A" transform="translate(55.50 128)"><path d="M50 -200V800H450V-200ZM100 -150H400V750H100Z" transform="translate(0.00 -0.00) scale(0.042000 -0.042000)"/><path d="M50 -200V800H450V-200ZM100 -150H400V750H100Z" transform="translate(21.00 -0.00) scale(0.042000 -0.042000)"/><path d="M50 -200V800H450V-200ZM100 -150H400V750H100Z" transform="translate(42.00 -0.00) scale(0.042000 -0.042000)"/><path d="M50 -200V800H450V-200ZM100 -150H400V750H100Z" transform="translate(63.00 -0.00) scale(0.042000 -0.042000)"/><path d="M50 -200V800H450V-200ZM100 -150H400V750H100Z" transform="translate(84.00 -0.00) scale(0.042000 -0.042000)"/><path d="M50 -200V800H450V-200ZM100 -150H400V750H100Z" transform="translate(105.00 -0.00) scale(0.042000 -0.042000)"/><path d="M50 -200V800H450V-200ZM100 -150H400V750H100Z" transform="translate(126.00 -0.00) scale(0.042000 -0.042000)"/><path d="M50 -200V800H450V-200ZM100 -150H400V750H100Z" transform="translate(147.00 -0.00) scale(0.042000 -0.042000)"/><path d="M50 -200V800H450V-200ZM100 -150H400V750H100Z" transform="translate(168.00 -0.00) scale(0.042000 -0.042000)"/></g>
<g fill="#2C2C2C" transform="translate(45.00 192)"><path d="M60 772H502V0H60ZM96 30H466V742H96Z" transform="translate(0.00 -0.00) scale(0.030000 -0.030000)"/><path d="M60 772H502V0H60ZM96 30H466V742H96Z" transform="translate(15.00 -0.00) scale(0.030000 -0.030000)"/><path d="M60 772H502V0H60ZM96 30H466V742H96Z" transform="translate(30.00 -0.00) scale(0.030000 -0.030000)"/><path d="M60 772H502V0H60ZM96 30H466V742H96Z" transform="translate(45.00 -0.00) scale(0.030000 -0.030000)"/><path d="M60 772H502V0H60ZM96 30H466V742H96Z" transform="translate(60.00 -0.00) scale(0.030000 -0.030000)"/><path d="M60 772H502V0H60ZM96 30H466V742H96Z" transform="translate(75.00 -0.00) scale(0.030000 -0.030000)"/><path d="M60 772H502V0H60ZM96 30H466V742H96Z" transform="translate(90.00 -0.00) scale(0.030000 -0.030000)"/><path d="M60 772H502V0H60ZM96 30H466V742H96Z" transform="translate(105.00 -0.00) scale(0.030000 -0.030000)"/><path d="M60 772H502V0H60ZM96 30H466V742H96Z" transform="translate(120.00 -0.00) scale(0.030000 -0.030000)"/><path d="M60 772H502V0H60ZM96 30H466V742H96Z" transform="translate(135.00 -0.00) scale(0.030000 -0.030000)"/><path d="M60 772H502V0H60ZM96 30H466V742H96Z" transform="translate(150.00 -0.00) scale(0.030000 -0.030000)"/><path d="M60 772H502V0H60ZM96 30H466V742H96Z" transform="translate(165.00 -0.00) scale(0.030000 -0.030000)"/><path d="M60 772H502V0H60ZM96 30H466V742H96Z" transform="translate(180.00 -0.00) scale(0.030000 -0.030000)"/><path d="M60 772H502V0H60ZM96 30H466V742H96Z" transform="translate(195.00 -0.00) scale(0.030000 -0.030000)"/></g>
<line x1="122" y1="212" x2="178" y2="212" stroke="#7D9B76" stroke-width="0.8"/>
<g fill="#7D9B76" transform="translate(125.25 230)"><path d="M502 772V0H60V772ZM466 742H96V30H466Z" transform="translate(0.00 -0.00) scale(0.011000 -0.011000)"/><path d="M502 772V0H60V772ZM466 742H96V30H466Z" transform="translate(5.50 -0.00) scale(0.011000 -0.011000)"/><path d="M502 772V0H60V772ZM466 742H96V30H466Z" transform="translate(11.00 -0.00) scale(0.011000 -0.011000)"/><path d="M502 772V0H60V772ZM466 742H96V30H466Z" transform="translate(16.50 -0.00) scale(0.011000 -0.011000)"/><path d="M502 772V0H60V772ZM466 742H96V30H466Z" transform="translate(22.00 -0.00) scale(0.011000 -0.011000)"/><path d="M502 772V0H60V772ZM466 742H96V30H466Z" transform="translate(27.50 -0.00) scale(0.011000 -0.011000)"/><path d="M502 772V0H60V772ZM466 742H96V30H466Z" transform="translate(33.00 -0.00) scale(0.011000 -0.011000)"/><path d="M502 772V0H60V772ZM466 742H96V30H466Z" transform="translate(38.50 -0.00) scale(0.011000 -0.011000)"/><path d="M502 772V0H60V772ZM466 742H96V30H466Z" transform="translate(44.00 -0.00) scale(0.011000 -0.011000)"/></g>
<g fill="#2C2C2C" transform="translate(59.50 312)"><path d="M60 772H502V0H60ZM96 30H466V742H96Z" transform="translate(0.00 -0.00) scale(0.015000 -0.015000)"/><path d="M60 772H502V0H60ZM96 30H466V742H96Z" transform="translate(7.50 -0.00) scale(0.015000 -0.015000)"/><path d="M60 772H502V0H60ZM96 30H466V742H96Z" transform="translate(15.00 -0.00) scale(0.015000 -0.015000)"/><path d="M60 772H502V0H60ZM96 30H466V742H96Z" transform="translate(22.50 -0.00) scale(0.015000 -0.015000)"/><path d="M60 772H502V0H60ZM96 30H466V742H96Z" transform="translate(30.00 -0.00) scale(0.015000 -0.015000)"/><path d="M60 772H502V0H60ZM96 30H466V742H96Z" transform="translate(37.50 -0.00) scale(0.015000 -0.015000)"/><path d="M60 772H502V0H60ZM96 30H466V742H96Z" transform="translate(45.00 -0.00) scale(0.015000 -0.015000)"/><path d="M60 772H502V0H60ZM96 30H466V742H96Z" transform="translate(52.50 -0.00) scale(0.015000 -0.015000)"/><path d="M60 772H502V0H60ZM96 30H466V742H96Z" transform="translate(60.00 -0.00) scale(0.015000 -0.015000)"/><path d="M60 772H502V0H60ZM96 30H466V742H96Z" transform="translate(67.50 -0.00) scale(0.015000 -0.015000)"/></g><g transform="translate(136.50 308)"><g fill="none" stroke="#7D9B76" stroke-width="0.9" stroke-linecap="round" stroke-linejoin="round"><path d="M0 6 C3 2 6 -2 8 -7"/><path d="M4 0 C1 -3 0 -6 2 -8 C4 -7 5 -3 4 0 Z"/><path d="M4.6 0.4 C7.6 -1 10.2 -1.4 10.6 0.6 C9 2 6.2 2 4.6 0.4 Z"/><path d="M6.6 -4.2 C4.4 -7 4 -9.8 5.8 -10.6 C7.2 -9.2 7.6 -6.4 6.6 -4.2 Z"/><path d="M7.2 -4.6 C9.8 -6.4 12.4 -7 13.2 -5.2 C11.8 -3.4 9.2 -3.2 7.2 -4.6 Z"/></g></g><g fill="#2C2C2C" transform="translate(150.50 312)"><path d="M60 772H502V0H60ZM96 30H466V742H96Z" transform="translate(0.00 -0.00) scale(0.015000 -0.015000)"/><path d="M60 772H502V0H60ZM96 30H466V742H96Z" transform="translate(7.50 -0.00) scale(0.015000 -0.015000)"/><path d="M60 772H502V0H60ZM96 30H466V742H96Z" transform="translate(15.00 -0.00) scale(0.015000 -0.015000)"/><path d="M60 772H502V0H60ZM96 30H466V742H96Z" transform="translate(22.50 -0.00) scale(0.015000 -0.015000)"/><path d="M60 772H502V0H60ZM96 30H466V742H96Z" transform="translate(30.00 -0.00) scale(0.015000 -0.015000)"/><path d="M60 772H502V0H60ZM96 30H466V742H96Z" transform="translate(37.50 -0.00) scale(0.015000 -0.015000)"/><path d="M60 772H502V0H60ZM96 30H466V742H96Z" transform="translate(45.00 -0.00) scale(0.015000 -0.015000)"/><path d="M60 772H502V0H60ZM96 30H466V742H96Z" transform="translate(52.50 -0.00) scale(0.015000 -0.015000)"/><path d="M60 772H502V0H60ZM96 30H466V742H96Z" transform="translate(60.00 -0.00) scale(0.015000 -0.015000)"/><path d="M60 772H502V0H60ZM96 30H466V742H96Z" transform="translate(67.50 -0.00) scale(0.015000 -0.015000)"/><path d="M60 772H502V0H60ZM96 30H466V742H96Z" transform="translate(75.00 -0.00) scale(0.015000 -0.015000)"/><path d="M60 772H502V0H60ZM96 30H466V742H96Z" transform="translate(82.50 -0.00) scale(0.015000 -0.015000)"/></g>
</svg>